<svg xmlns="http://www.w3.org/2000/svg" viewBox="0 0 1057 583"><g><g><g><path fill="#fff" d="M27.08 34.752c14.46.016 26.18 11.735 26.196 26.196 0 14.468-11.729 26.195-26.196 26.195C12.612 87.143.884 75.415.884 60.947c0-14.467 11.729-26.195 26.195-26.195zm0 53.276c14.948-.017 27.063-12.131 27.08-27.08 0-14.956-12.124-27.08-27.08-27.08C12.124 33.868 0 45.992 0 60.948c0 14.956 12.124 27.08 27.08 27.08z"/></g><g><path fill="#252f5a" d="M392.23 478.59a8.624 8.624 0 1 1-17.248-.002 8.624 8.624 0 0 1 17.247.002z"/></g><g><path fill="#ffa76c" d="M841.43 558.217l-14.122 24.466h28.248z"/></g><g><path fill="#fff" d="M1055.293 332.434l-18.893 18.89-6.913-25.806zm1.168.083l.539-.542-28.763-7.708 7.506 28.026.201.741z"/></g><g><path fill="#252f5a" d="M824.008 34.058L807 17.05 824.008.04l17.009 17.009z"/></g><g><path fill="#252f5a" d="M496.371 155.687l-38.274-38.274.629-.629L497 155.06z"/></g></g></g></svg>