<svg xmlns="http://www.w3.org/2000/svg" width="91" height="87" viewBox="0 0 91 87"><defs><clipPath id="yfw4a"><path fill="#fff" d="M40 76c0-6.075 4.925-11 11-11s11 4.925 11 11-4.925 11-11 11-11-4.925-11-11z"/></clipPath></defs><g><g><g><path fill="none" stroke="#ffe07d" stroke-miterlimit="50" d="M27.389 8.485L8.945 26.925 2.197 1.733zm1.14.08l.526-.529L.976.513 8.304 27.87l.196.723z"/></g><g><path fill="#252f5a" d="M90.41 52.923L53.047 15.56l.614-.614 37.363 37.363z"/></g><g><path fill="none" stroke="#462be2" stroke-miterlimit="50" stroke-width="2" d="M40 76c0-6.075 4.925-11 11-11s11 4.925 11 11-4.925 11-11 11-11-4.925-11-11z" clip-path="url(&quot;#yfw4a&quot;)"/></g></g></g></svg>