<svg xmlns="http://www.w3.org/2000/svg" width="56" height="77" viewBox="0 0 56 77"><defs><clipPath id="squma"><path fill="#fff" d="M1 2.35c0-1 1-2 2-2h50c1 0 2 1 2 2v64c0 1-1 2-2 2H3c-1 0-2-1-2-2z"/></clipPath><clipPath id="squmb"><path fill="#fff" d="M28 52.35a9 9 0 1 1 18 0 9 9 0 0 1-18 0z"/></clipPath><clipPath id="squmc"><path fill="#fff" d="M32.48 58.35H41v18.743l-4.25-4.645-4.27 4.645z"/></clipPath></defs><g><g><g><path fill="none" stroke="#252f5a" stroke-miterlimit="50" stroke-width="6" d="M1 2.35c0-1 1-2 2-2h50c1 0 2 1 2 2v64c0 1-1 2-2 2H3c-1 0-2-1-2-2z" clip-path="url(&quot;#squma&quot;)"/></g><g><path fill="none" stroke="#252f5a" stroke-miterlimit="50" stroke-width="6" d="M28 52.35a9 9 0 1 1 18 0 9 9 0 0 1-18 0z" clip-path="url(&quot;#squmb&quot;)"/></g><g><path fill="#252f5a" d="M32.48 58.35H41v18.743l-4.25-4.645-4.27 4.645z"/><path fill="none" stroke="#252f5a" stroke-miterlimit="50" stroke-width="4" d="M32.48 58.35v0H41v18.743l-4.25-4.645v0l-4.27 4.645v0z" clip-path="url(&quot;#squmc&quot;)"/></g></g></g></svg>