<svg xmlns="http://www.w3.org/2000/svg" width="72" height="54" viewBox="0 0 72 54"><defs><clipPath id="lx2ya"><path fill="#fff" d="M9.333 38.67h53.334c.736 0 1.333.597 1.333 1.333L72 52c0 .737-.597 1.333-1.333 1.333H1.333A1.333 1.333 0 0 1 0 52l8-11.997c0-.736.597-1.333 1.333-1.333z"/></clipPath><clipPath id="lx2yb"><path fill="#fff" d="M7.998 1c0-.5.5-1 1-1h54.004c.5 0 1 .5 1 1v40.656c0 .5-.5 1-1 1H8.998c-.5 0-1-.5-1-1z"/></clipPath></defs><g><g><g><g><path fill="none" stroke="#252f5a" stroke-linecap="round" stroke-linejoin="round" stroke-miterlimit="50" stroke-width="3" d="M24.47 27.017v0l7.77-7.073v0l4.235 3.863v0l11.54-10.535v0"/></g><g><g><path fill="none" stroke="#252f5a" stroke-linecap="round" stroke-linejoin="round" stroke-miterlimit="50" stroke-width="6" d="M9.333 38.67v0h53.334c.736 0 1.333.597 1.333 1.333L72 52c0 .737-.597 1.333-1.333 1.333H1.333A1.333 1.333 0 0 1 0 52l8-11.997c0-.736.597-1.333 1.333-1.333z" clip-path="url(&quot;#lx2ya&quot;)"/></g><g><path fill="none" stroke="#252f5a" stroke-miterlimit="50" stroke-width="6" d="M7.998 1c0-.5.5-1 1-1h54.004c.5 0 1 .5 1 1v40.656c0 .5-.5 1-1 1H8.998c-.5 0-1-.5-1-1z" clip-path="url(&quot;#lx2yb&quot;)"/></g></g></g><g><path fill="none" stroke="#252f5a" stroke-linecap="round" stroke-linejoin="round" stroke-miterlimit="50" stroke-width="3" d="M42.223 12.417v0l6.113.347v0l.525 5.826v0"/></g></g></g></svg>