<svg xmlns="http://www.w3.org/2000/svg" width="72" height="54" viewBox="0 0 72 54"><defs><clipPath id="kuoia"><path fill="#fff" d="M32.671 13.022a1 1 0 0 1 1-1h6.09c.044-1.33.112-2.269.203-2.364.39-.39 1.023-.39 1.415 0l5.656 5.657a1 1 0 0 1 0 1.414l-5.656 5.657c-.392.39-1.024.39-1.415 0-.093-.096-.161-1.036-.204-2.364h-6.088a1 1 0 0 1-1-1z"/></clipPath><clipPath id="kuoib"><path fill="#fff" d="M38.328 23.022a1 1 0 0 0-1-1h-6.09c-.043-1.33-.111-2.269-.203-2.364a1.001 1.001 0 0 0-1.414 0l-5.656 5.657a.999.999 0 0 0 0 1.414l5.656 5.657c.391.39 1.024.39 1.414 0 .094-.096.162-1.036.205-2.364h6.088a1 1 0 0 0 1-1z"/></clipPath><clipPath id="kuoic"><path fill="#fff" d="M9.333 38.67h53.334c.736 0 1.333.597 1.333 1.333L72 52c0 .737-.597 1.333-1.333 1.333H1.333A1.333 1.333 0 0 1 0 52l8-11.997c0-.736.597-1.333 1.333-1.333z"/></clipPath><clipPath id="kuoid"><path fill="#fff" d="M7.998 1c0-.5.5-1 1-1h54.004c.5 0 1 .5 1 1v40.656c0 .5-.5 1-1 1H8.998c-.5 0-1-.5-1-1z"/></clipPath></defs><g><g><g><path fill="none" stroke="#252f5a" stroke-miterlimit="50" stroke-width="4" d="M32.671 13.022a1 1 0 0 1 1-1h6.09c.044-1.33.112-2.269.203-2.364.39-.39 1.023-.39 1.415 0l5.656 5.657a1 1 0 0 1 0 1.414l-5.656 5.657c-.392.39-1.024.39-1.415 0-.093-.096-.161-1.036-.204-2.364h-6.088a1 1 0 0 1-1-1z" clip-path="url(&quot;#kuoia&quot;)"/></g><g><path fill="none" stroke="#252f5a" stroke-miterlimit="50" stroke-width="4" d="M38.328 23.022a1 1 0 0 0-1-1h-6.09c-.043-1.33-.111-2.269-.203-2.364a1.001 1.001 0 0 0-1.414 0l-5.656 5.657a.999.999 0 0 0 0 1.414l5.656 5.657c.391.39 1.024.39 1.414 0 .094-.096.162-1.036.205-2.364h6.088a1 1 0 0 0 1-1z" clip-path="url(&quot;#kuoib&quot;)"/></g><g><g><path fill="none" stroke="#252f5a" stroke-linecap="round" stroke-linejoin="round" stroke-miterlimit="50" stroke-width="6" d="M9.333 38.67v0h53.334c.736 0 1.333.597 1.333 1.333L72 52c0 .737-.597 1.333-1.333 1.333H1.333A1.333 1.333 0 0 1 0 52l8-11.997c0-.736.597-1.333 1.333-1.333z" clip-path="url(&quot;#kuoic&quot;)"/></g><g><path fill="none" stroke="#252f5a" stroke-miterlimit="50" stroke-width="6" d="M7.998 1c0-.5.5-1 1-1h54.004c.5 0 1 .5 1 1v40.656c0 .5-.5 1-1 1H8.998c-.5 0-1-.5-1-1z" clip-path="url(&quot;#kuoid&quot;)"/></g></g></g></g></svg>