<svg xmlns="http://www.w3.org/2000/svg" width="74" height="100" viewBox="0 0 74 100"><defs><clipPath id="u7m2a"><path fill="#fff" d="M0 11.35c0-6.075 4.925-11 11-11s11 4.925 11 11c0 6.076-4.925 11-11 11s-11-4.924-11-11z"/></clipPath></defs><g><g><g><path fill="none" stroke="#462be2" stroke-miterlimit="50" d="M56.603 71.207v0L40 54.603v0L56.603 38v0l16.604 16.603v0z"/></g><g><path fill="#252f5a" d="M37.363 99.273L0 61.91l.614-.613L37.977 98.66z"/></g><g><path fill="none" stroke="#ffa76c" stroke-miterlimit="50" stroke-width="2" d="M0 11.35c0-6.075 4.925-11 11-11s11 4.925 11 11c0 6.076-4.925 11-11 11s-11-4.924-11-11z" clip-path="url(&quot;#u7m2a&quot;)"/></g></g></g></svg>