<svg xmlns="http://www.w3.org/2000/svg" width="83" height="81" viewBox="0 0 83 81"><defs><clipPath id="gv32a"><path fill="#fff" d="M0 11.35c0-6.075 4.925-11 11-11s11 4.925 11 11c0 6.076-4.925 11-11 11s-11-4.924-11-11z"/></clipPath></defs><g><g><g><path fill="none" stroke="#ffa76c" stroke-miterlimit="50" d="M31.235 56.124v0L17.449 80.007v0h27.575v0z"/></g><g><path fill="#252f5a" d="M82.41 49.273L45.047 11.91l.614-.613L83.024 48.66z"/></g><g><path fill="none" stroke="#462be2" stroke-miterlimit="50" stroke-width="2" d="M0 11.35c0-6.075 4.925-11 11-11s11 4.925 11 11c0 6.076-4.925 11-11 11s-11-4.924-11-11z" clip-path="url(&quot;#gv32a&quot;)"/></g></g></g></svg>