<svg xmlns="http://www.w3.org/2000/svg" width="99" height="104" viewBox="0 0 99 104"><defs><clipPath id="5qmva"><path fill="#fff" d="M77.112 81.35c0-6.074 4.924-11 11-11 6.075 0 11 4.926 11 11 0 6.076-4.925 11-11 11-6.076 0-11-4.924-11-11z"/></clipPath></defs><g><g><g><path fill="none" stroke="#ffa76c" stroke-miterlimit="50" d="M34.207 17.603v0L17.603 34.207v0L1 17.603v0L17.603 1v0z"/></g><g><path fill="#252f5a" d="M42.064 65.91L4.701 103.273l-.613-.613L41.45 65.297z"/></g><g><path fill="none" stroke="#462be2" stroke-miterlimit="50" stroke-width="2" d="M77.112 81.35c0-6.074 4.924-11 11-11 6.075 0 11 4.926 11 11 0 6.076-4.925 11-11 11-6.076 0-11-4.924-11-11z" clip-path="url(&quot;#5qmva&quot;)"/></g></g></g></svg>