<svg xmlns="http://www.w3.org/2000/svg" width="87" height="81" viewBox="0 0 87 81"><defs><clipPath id="9md9a"><path fill="#fff" d="M0 70c0-6.075 4.925-11 11-11s11 4.925 11 11-4.925 11-11 11S0 76.075 0 70z"/></clipPath></defs><g><g><g><path fill="none" stroke="#462be2" stroke-miterlimit="50" d="M69.508 33.856v0L52.905 17.253v0L69.508.649v0l16.604 16.604v0z"/></g><g><path fill="#252f5a" d="M68.41 77.923L31.047 40.56l.614-.614 37.363 37.363z"/></g><g><path fill="none" stroke="#ffa76c" stroke-miterlimit="50" stroke-width="2" d="M0 70c0-6.075 4.925-11 11-11s11 4.925 11 11-4.925 11-11 11S0 76.075 0 70z" clip-path="url(&quot;#9md9a&quot;)"/></g></g></g></svg>