<svg xmlns="http://www.w3.org/2000/svg" width="72" height="54" viewBox="0 0 72 54"><defs><clipPath id="f3qsa"><path fill="#fff" d="M32.24 27.35c-.69 0-1.252-.448-1.252-.999v-6.758c-2.006-.057-3.455-.153-3.593-.287a1.35 1.35 0 0 1 0-1.911l7.65-7.65a1.35 1.35 0 0 1 1.91 0l7.65 7.65a1.35 1.35 0 0 1 0 1.911c-.14.136-1.59.233-3.592.29v6.755c0 .551-.562 1-1.254 1z"/></clipPath><clipPath id="f3qsb"><path fill="#fff" d="M9.333 38.67h53.334c.736 0 1.333.597 1.333 1.333L72 52c0 .737-.597 1.333-1.333 1.333H1.333A1.333 1.333 0 0 1 0 52l8-11.997c0-.736.597-1.333 1.333-1.333z"/></clipPath><clipPath id="f3qsc"><path fill="#fff" d="M7.998 1c0-.5.5-1 1-1h54.004c.5 0 1 .5 1 1v40.656c0 .5-.5 1-1 1H8.998c-.5 0-1-.5-1-1z"/></clipPath></defs><g><g><g><g><path fill="#252f5a" d="M27 30.85c0-.75.75-1.5 1.5-1.5h15c.75 0 1.5.75 1.5 1.5s-.75 1.5-1.5 1.5h-15c-.75 0-1.5-.75-1.5-1.5z"/></g><g><path fill="none" stroke="#252f5a" stroke-miterlimit="50" stroke-width="6" d="M32.24 27.35c-.69 0-1.252-.448-1.252-.999v-6.758c-2.006-.057-3.455-.153-3.593-.287a1.35 1.35 0 0 1 0-1.911l7.65-7.65a1.35 1.35 0 0 1 1.91 0l7.65 7.65a1.35 1.35 0 0 1 0 1.911c-.14.136-1.59.233-3.592.29v6.755c0 .551-.562 1-1.254 1z" clip-path="url(&quot;#f3qsa&quot;)"/></g><g><g><path fill="none" stroke="#252f5a" stroke-linecap="round" stroke-linejoin="round" stroke-miterlimit="50" stroke-width="6" d="M9.333 38.67v0h53.334c.736 0 1.333.597 1.333 1.333L72 52c0 .737-.597 1.333-1.333 1.333H1.333A1.333 1.333 0 0 1 0 52l8-11.997c0-.736.597-1.333 1.333-1.333z" clip-path="url(&quot;#f3qsb&quot;)"/></g><g><path fill="none" stroke="#252f5a" stroke-miterlimit="50" stroke-width="6" d="M7.998 1c0-.5.5-1 1-1h54.004c.5 0 1 .5 1 1v40.656c0 .5-.5 1-1 1H8.998c-.5 0-1-.5-1-1z" clip-path="url(&quot;#f3qsc&quot;)"/></g></g></g></g></g></svg>