<svg xmlns="http://www.w3.org/2000/svg" width="72" height="43" viewBox="0 0 72 43"><defs><clipPath id="flxta"><path fill="#fff" d="M9.333 0h53.334c.736 0 1.406 1.333 1.333 1.364l8 12.272C72 14.39 71.403 15 70.667 15H1.333C.597 15 0 14.39 0 13.636L8 1.364C8.125 1.31 8.597 0 9.333 0z"/></clipPath></defs><g><g><g><g><path fill="none" stroke="#252f5a" stroke-linecap="round" stroke-linejoin="round" stroke-miterlimit="50" stroke-width="6" d="M9.333 0v0h53.334c.736 0 1.406 1.333 1.333 1.364l8 12.272C72 14.39 71.403 15 70.667 15H1.333C.597 15 0 14.39 0 13.636L8 1.364C8.125 1.31 8.597 0 9.333 0z" clip-path="url(&quot;#flxta&quot;)"/></g><g><path fill="#252f5a" d="M0 20.5c0-.75.75-1.5 1.5-1.5h69c.75 0 1.5.75 1.5 1.5s-.75 1.5-1.5 1.5h-69C.75 22 0 21.25 0 20.5z"/></g><g><path fill="#252f5a" d="M0 27.5c0-.75.75-1.5 1.5-1.5h69c.75 0 1.5.75 1.5 1.5s-.75 1.5-1.5 1.5h-69C.75 29 0 28.25 0 27.5z"/></g><g><path fill="#252f5a" d="M0 34.5c0-.75.75-1.5 1.5-1.5h69c.75 0 1.5.75 1.5 1.5s-.75 1.5-1.5 1.5h-69C.75 36 0 35.25 0 34.5z"/></g><g><path fill="#252f5a" d="M0 41.5c0-.75.75-1.5 1.5-1.5h69c.75 0 1.5.75 1.5 1.5s-.75 1.5-1.5 1.5h-69C.75 43 0 42.25 0 41.5z"/></g></g></g></g></svg>