<svg xmlns="http://www.w3.org/2000/svg" width="1097" height="930" viewBox="0 0 1097 930"><g><g><g><path fill="#23d87d" d="M1069.42 34.752c14.467 0 26.195 11.728 26.196 26.195 0 14.468-11.728 26.196-26.196 26.196-14.467 0-26.195-11.727-26.196-26.195.016-14.46 11.735-26.18 26.197-26.196zm0 53.276c14.956 0 27.08-12.124 27.08-27.08 0-14.956-12.124-27.08-27.08-27.08-14.956 0-27.08 12.124-27.08 27.08.017 14.949 12.132 27.063 27.08 27.08z"/></g><g><path fill="#252f5a" d="M957.27 245.59a8.624 8.624 0 1 0 17.248-.002 8.624 8.624 0 0 0-17.247.002z"/></g><g><path fill="#ffa76c" d="M245.378 300.217l14.122 24.466h-28.247z"/></g><g><path fill="#23d87d" d="M53.013 189.518L46.1 215.324l-18.893-18.89zm-6.457 27.516l.2-.74 7.507-28.027-28.763 7.708.539.542z"/></g><g><path fill="#252f5a" d="M231.5 17.05l-17.008 17.008-17.009-17.008L214.492.04z"/></g><g><path fill="#252f5a" d="M1048.403 394.413l-38.274 38.274-.629-.628 38.274-38.275z"/></g><g><path fill="#252f5a" d="M39.403 891.413L1.129 929.687.5 929.06l38.274-38.275z"/></g></g></g></svg>